# xmcd
#
# Track frame offsets:
#	151
#	4874
#	24875
#	42088
#	62446
#	78972
#	100259
#	120132
#	138351
#	161615
#	184239
#	197991
#	226281
#	246852
#	266858
#	281577
#
# Disc length: 3940 seconds
#
# Revision: 1
# Processed by: cddbd v1.5.2PL0 Copyright (c) Steve Scherf et al.
# Submitted via: EZCDAudioConverter 5.0.0.1
#
DISCID=cd0f6210
DTITLE=罗百吉 - 基因 CD1
DYEAR=2000
DGENRE=country
TTITLE0=序曲
TTITLE1=中国美眉
TTITLE2=噤声
TTITLE3=光影
TTITLE4=灿烂前程
TTITLE5=新鲜
TTITLE6=伦敦夜车
TTITLE7=快跑
TTITLE8=大家一起叫2000＜摇头电子超炫轨＞
TTITLE9=激战上海滩
TTITLE10=新世纪欧巴桑
TTITLE11=林荫
TTITLE12=就是今夜
TTITLE13=感·性
TTITLE14=噤声宝宝版
TTITLE15=无聊男子
EXTD=
EXTT0=
EXTT1=
EXTT2=
EXTT3=
EXTT4=
EXTT5=
EXTT6=
EXTT7=
EXTT8=
EXTT9=
EXTT10=
EXTT11=
EXTT12=
EXTT13=
EXTT14=
EXTT15=
PLAYORDER=
